<svg width="1600" height="2000" viewBox="0 0 1600 2000" fill="none" xmlns="http://www.w3.org/2000/svg">
  <rect width="1600" height="2000" fill="#F7F7F5"/>
  <rect x="120" y="120" width="1360" height="1760" stroke="#D9D9D9"/>
  <path d="M820 380C820 300 760 246 682 246C604 246 548 300 548 380C548 460 604 512 682 512C760 512 820 460 820 380Z" fill="#E6E1DA"/>
  <path d="M985 894C985 688 853 548 685 548C517 548 385 688 385 894V1598H985V894Z" fill="#DDD6CD"/>
  <path d="M1112 620C1112 562 1070 526 1018 526C966 526 922 562 922 620C922 678 966 714 1018 714C1070 714 1112 678 1112 620Z" fill="#ECE7E0"/>
  <path d="M1228 1050C1228 920 1146 806 1016 806C886 806 802 920 802 1050V1598H1228V1050Z" fill="#EAE4DC"/>
  <text x="120" y="1790" fill="#111111" font-family="Georgia, serif" font-size="62" letter-spacing="12">DION BACI ATELIER</text>
</svg>
